<?xml version="1.0" encoding="UTF-8" standalone="no" ?>
<!DOCTYPE svg PUBLIC "-//W3C//DTD SVG 1.1//EN" "http://www.w3.org/Graphics/SVG/1.1/DTD/svg11.dtd">
<svg xmlns="http://www.w3.org/2000/svg" xmlns:xlink="http://www.w3.org/1999/xlink" version="1.1" width="600" height="600" viewBox="0 0 600 600" xml:space="preserve">
<desc>Created with Fabric.js 4.0.0-beta.8</desc>
<defs>
</defs>
<g transform="matrix(1 0 0 1 300.5 300.5)"  >
<linearGradient id="SVGID_285" gradientUnits="userSpaceOnUse" gradientTransform="matrix(1 0 0 1 -300 -300)"  x1="0" y1="300" x2="600" y2="300">
<stop offset="0%" style="stop-color:#84FAB0;"/>
<stop offset="100%" style="stop-color:#8FD3F4;"/>
</linearGradient>
<rect style="stroke: none; stroke-width: 1; stroke-dasharray: none; stroke-linecap: butt; stroke-dashoffset: 0; stroke-linejoin: miter; stroke-miterlimit: 4; fill: url(#SVGID_285); fill-rule: nonzero; opacity: 1;"  x="-300" y="-300" rx="0" ry="0" width="600" height="600" />
</g>
<g transform="matrix(Infinity NaN NaN Infinity 50.39 60.04)"  >
<g style=""   >
</g>
</g>
<g transform="matrix(Infinity NaN NaN Infinity 139.46 40.8)"  >
<g style=""   >
</g>
</g>
<g transform="matrix(Infinity NaN NaN Infinity 196.75 37.01)"  >
<g style=""   >
</g>
</g>
<g transform="matrix(Infinity NaN NaN Infinity 365.66 67.42)"  >
<g style=""   >
</g>
</g>
<g transform="matrix(Infinity NaN NaN Infinity 540.68 51.14)"  >
<g style=""   >
</g>
</g>
<g transform="matrix(Infinity NaN NaN Infinity 60.31 145.42)"  >
<g style=""   >
</g>
</g>
<g transform="matrix(Infinity NaN NaN Infinity 146.68 104.34)"  >
<g style=""   >
</g>
</g>
<g transform="matrix(Infinity NaN NaN Infinity 207.85 113.88)"  >
<g style=""   >
</g>
</g>
<g transform="matrix(Infinity NaN NaN Infinity 293.81 91.72)"  >
<g style=""   >
</g>
</g>
<g transform="matrix(Infinity NaN NaN Infinity 398.32 138.06)"  >
<g style=""   >
</g>
</g>
<g transform="matrix(Infinity NaN NaN Infinity 463.5 104.84)"  >
<g style=""   >
</g>
</g>
<g transform="matrix(Infinity NaN NaN Infinity 528.47 123.51)"  >
<g style=""   >
</g>
</g>
<g transform="matrix(Infinity NaN NaN Infinity 101.97 224.94)"  >
<g style=""   >
</g>
</g>
<g transform="matrix(Infinity NaN NaN Infinity 185.89 164.03)"  >
<g style=""   >
</g>
</g>
<g transform="matrix(Infinity NaN NaN Infinity 335.56 159.75)"  >
<g style=""   >
</g>
</g>
<g transform="matrix(Infinity NaN NaN Infinity 408.58 161.22)"  >
<g style=""   >
</g>
</g>
<g transform="matrix(Infinity NaN NaN Infinity 471.12 213.67)"  >
<g style=""   >
</g>
</g>
<g transform="matrix(Infinity NaN NaN Infinity 562.19 221.65)"  >
<g style=""   >
</g>
</g>
<g transform="matrix(Infinity NaN NaN Infinity 61.54 264.61)"  >
<g style=""   >
</g>
</g>
<g transform="matrix(Infinity NaN NaN Infinity 118.62 325.85)"  >
<g style=""   >
</g>
</g>
<g transform="matrix(Infinity NaN NaN Infinity 156.11 289.4)"  >
<g style=""   >
</g>
</g>
<g transform="matrix(Infinity NaN NaN Infinity -171.67 590.98)"  >
<g style=""   >
</g>
</g>
<g transform="matrix(Infinity NaN NaN Infinity 437.92 280.5)"  >
<g style=""   >
</g>
</g>
<g transform="matrix(Infinity NaN NaN Infinity 466.6 290.06)"  >
<g style=""   >
</g>
</g>
<g transform="matrix(Infinity NaN NaN Infinity 529.06 315.35)"  >
<g style=""   >
</g>
</g>
<g transform="matrix(Infinity NaN NaN Infinity 49.9 374.37)"  >
<g style=""   >
</g>
</g>
<g transform="matrix(Infinity NaN NaN Infinity 102.87 351.48)"  >
<g style=""   >
</g>
</g>
<g transform="matrix(Infinity NaN NaN Infinity 169.04 394.03)"  >
<g style=""   >
</g>
</g>
<g transform="matrix(Infinity NaN NaN Infinity 313.6 442.4)"  >
<g style=""   >
</g>
</g>
<g transform="matrix(Infinity NaN NaN Infinity 432.57 381.8)"  >
<g style=""   >
</g>
</g>
<g transform="matrix(Infinity NaN NaN Infinity 461.44 403.59)"  >
<g style=""   >
</g>
</g>
<g transform="matrix(Infinity NaN NaN Infinity 550.68 399.16)"  >
<g style=""   >
</g>
</g>
<g transform="matrix(Infinity NaN NaN Infinity 65.74 472.08)"  >
<g style=""   >
</g>
</g>
<g transform="matrix(Infinity NaN NaN Infinity 109.17 451.95)"  >
<g style=""   >
</g>
</g>
<g transform="matrix(Infinity NaN NaN Infinity 228.68 458.7)"  >
<g style=""   >
</g>
</g>
<g transform="matrix(Infinity NaN NaN Infinity 321.51 474.23)"  >
<g style=""   >
</g>
</g>
<g transform="matrix(Infinity NaN NaN Infinity 368.58 488.38)"  >
<g style=""   >
</g>
</g>
<g transform="matrix(Infinity NaN NaN Infinity 463.9 461.28)"  >
<g style=""   >
</g>
</g>
<g transform="matrix(Infinity NaN NaN Infinity 527.67 460.04)"  >
<g style=""   >
</g>
</g>
<g transform="matrix(Infinity NaN NaN Infinity 42.75 551.01)"  >
<g style=""   >
</g>
</g>
<g transform="matrix(Infinity NaN NaN Infinity 134.22 529.39)"  >
<g style=""   >
</g>
</g>
<g transform="matrix(Infinity NaN NaN Infinity 187.88 559.21)"  >
<g style=""   >
</g>
</g>
<g transform="matrix(Infinity NaN NaN Infinity 310.2 530.15)"  >
<g style=""   >
</g>
</g>
<g transform="matrix(Infinity NaN NaN Infinity 405.26 519.39)"  >
<g style=""   >
</g>
</g>
<g transform="matrix(Infinity NaN NaN Infinity 450.34 552.78)"  >
<g style=""   >
</g>
</g>
</svg>